<?xml version="1.0" encoding="UTF-8" standalone="no"?>
<svg
   xmlns:dc="http://purl.org/dc/elements/1.1/"
   xmlns:cc="http://creativecommons.org/ns#"
   xmlns:rdf="http://www.w3.org/1999/02/22-rdf-syntax-ns#"
   xmlns:svg="http://www.w3.org/2000/svg"
   xmlns="http://www.w3.org/2000/svg"
   xmlns:sodipodi="http://sodipodi.sourceforge.net/DTD/sodipodi-0.dtd"
   xmlns:inkscape="http://www.inkscape.org/namespaces/inkscape"
   version="1.1"
   id="svg2"
   viewBox="0 0 231.01564 30.713316"
   height="8.6679802mm"
   width="65.197746mm"
   inkscape:version="0.91 r13725"
   sodipodi:docname="rcpart-logo.svg">
  <sodipodi:namedview
     pagecolor="#ffffff"
     bordercolor="#666666"
     borderopacity="1"
     objecttolerance="10"
     gridtolerance="10"
     guidetolerance="10"
     inkscape:pageopacity="0"
     inkscape:pageshadow="2"
     inkscape:window-width="2560"
     inkscape:window-height="1353"
     id="namedview4361"
     showgrid="false"
     inkscape:zoom="6.2730599"
     inkscape:cx="113.19033"
     inkscape:cy="27.054664"
     inkscape:window-x="-2"
     inkscape:window-y="-3"
     inkscape:window-maximized="1"
     inkscape:current-layer="text4210"
     fit-margin-top="0"
     fit-margin-left="0"
     fit-margin-right="0"
     fit-margin-bottom="0" />
  <defs
     id="defs4" />
  <metadata
     id="metadata7">
    <rdf:RDF>
      <cc:Work
         rdf:about="">
        <dc:format>image/svg+xml</dc:format>
        <dc:type
           rdf:resource="http://purl.org/dc/dcmitype/StillImage" />
        <dc:title></dc:title>
      </cc:Work>
    </rdf:RDF>
  </metadata>
  <g
     transform="translate(-64.946091,-329.5867)"
     id="layer1">
    <g
       style="font-style:normal;font-variant:normal;font-weight:normal;font-stretch:normal;font-size:40px;line-height:125%;font-family:Sans;-inkscape-font-specification:'Permanent Marker';letter-spacing:0px;word-spacing:0px;fill:#333333;fill-opacity:1;stroke:none;stroke-width:1px;stroke-linecap:butt;stroke-linejoin:miter;stroke-opacity:1"
       id="text4210">
      <path
         d="m 65.649216,355.5242 q -0.195313,0.0391 -0.351563,-0.27344 -0.15625,-0.35156 -0.351562,-0.66406 l 0.429687,0 q -0.273437,-0.85937 -0.15625,-1.5625 0.15625,-0.74219 0.351563,-1.40625 0.195312,-0.70312 0.3125,-1.32812 0.15625,-0.66407 -0.117188,-1.36719 0.195313,0.11719 0.273438,-0.0781 0.117187,-0.23437 0.15625,-0.54687 0.07813,-0.35156 0.03906,-0.70313 0,-0.39062 -0.03906,-0.625 0.507812,-1.21093 0.78125,-2.5 0.3125,-1.28906 0.546875,-2.53906 0.234375,-1.28906 0.507812,-2.46094 0.3125,-1.21093 0.78125,-2.26562 0.546875,-0.0781 1.132813,0.15625 0.625,0.19531 0.820312,0.50781 1.210938,-0.9375 2.148438,-2.26562 0.9375,-1.32813 1.875,-2.57813 0.976562,-1.28906 2.1875,-2.26562 1.210937,-0.97657 3.007812,-1.17188 0.9375,0.66406 2.109375,1.44531 1.171875,0.74219 1.914063,1.875 0.3125,0.19532 0.585937,0.42969 0.3125,0.19531 0.625,0.39063 l 0,0.58593 q 0.546875,0.50782 0.898438,1.21094 0.390625,0.66406 0.664062,1.44531 0.3125,0.74219 0.585938,1.52344 0.273437,0.78125 0.625,1.44531 -0.07813,0.23438 -0.07813,0.42969 0.03906,0.15625 0.07813,0.35156 0.07813,0.15625 0.117187,0.39063 0.03906,0.19531 0.03906,0.50781 -0.15625,2.07031 -1.367188,3.35938 -1.171875,1.25 -2.890625,2.07031 -1.679687,0.78125 -3.59375,1.36719 -1.914062,0.54687 -3.476562,1.21093 0,0.15625 0.15625,0.15625 0.195312,0 0.117187,0.23438 1.171875,0.70312 1.796875,1.13281 0.664063,0.42969 1.210938,0.74219 0.585937,0.27344 1.25,0.46875 0.703125,0.19531 1.914062,0.46875 1.210938,0.27344 1.875,0.46875 0.703125,0.15625 1.25,0.27344 0.546875,0.0781 1.171875,0.15625 0.625,0.0781 1.679688,0.19531 0.429687,0.42969 0.703125,1.01562 0.273437,0.58594 0.390625,1.17188 0.117187,0.58594 0.03906,1.13281 -0.03906,0.50781 -0.3125,0.82031 0.03906,0.15625 0.195313,0.15625 0.195312,-0.0391 0.390625,0 -0.273438,0.19532 -0.46875,0.46875 -0.195313,0.27344 -0.390625,0.54688 -0.195313,0.27344 -0.46875,0.50781 -0.234375,0.23438 -0.625,0.27344 -1.40625,0.54687 -3.59375,0.0391 -2.1875,-0.50781 -5.585938,-1.79687 -1.679687,-0.625 -2.734375,-1.13282 -1.054687,-0.50781 -1.835937,-0.97656 -0.78125,-0.50781 -1.445313,-1.05469 -0.664062,-0.58593 -1.523437,-1.36718 -0.117188,0.0391 -0.15625,0.15625 0,0.11718 -0.117188,0.15625 -0.195312,1.5625 -0.625,2.53906 -0.390625,0.97656 -1.171875,1.99219 -0.625,-0.11719 -0.859375,0.11718 -0.195312,0.23438 -0.507812,0.42969 -0.390625,0.0781 -0.585938,-0.0391 -0.195312,-0.0781 -0.351562,-0.19531 -0.15625,-0.11719 -0.351563,-0.23438 -0.195312,-0.11719 -0.625,-0.0781 -0.117187,-0.35157 -0.234375,-0.66407 -0.117187,-0.35156 -0.625,-0.3125 0.117188,-0.35156 0.07813,-0.58593 -0.03906,-0.27344 -0.117187,-0.46875 -0.07813,-0.23438 -0.15625,-0.46875 -0.03906,-0.23438 0.07813,-0.54688 z m 13.046875,-17.85156 q -0.507813,0.74219 -1.132813,1.36719 -0.625,0.58593 -1.25,1.25 -0.585937,0.625 -1.054687,1.40625 -0.46875,0.74218 -0.664063,1.79687 1.640625,-0.19531 3.4375,-0.89844 1.796875,-0.74218 3.398438,-1.40625 -0.195313,-1.44531 -1.015625,-2.30468 -0.820313,-0.89844 -1.71875,-1.21094 z"
         style="font-style:normal;font-variant:normal;font-weight:normal;font-stretch:normal;font-family:'Permanent Marker';-inkscape-font-specification:'Permanent Marker';fill:#333333;fill-opacity:1"
         id="path4233" />
      <path
         d="m 94.047653,355.48514 q -1.132812,-0.85938 -1.875,-2.14844 -0.703125,-1.28906 -1.132812,-2.73437 -0.390625,-1.44532 -0.546875,-2.96875 -0.117188,-1.5625 -0.07813,-2.96875 0.351562,-1.05469 0.859375,-1.91407 0.507812,-0.89843 1.132812,-1.67968 0.625,-0.82032 1.289063,-1.52344 0.703125,-0.74219 1.367187,-1.48438 0.234375,0 0.429688,0.11719 0.15625,-0.42969 0.46875,-0.74219 0.3125,-0.3125 0.664062,-0.54687 0.351563,-0.27344 0.703125,-0.50781 0.351563,-0.27344 0.585938,-0.625 0.976562,-0.23438 1.71875,-0.66407 0.781249,-0.42968 1.484379,-0.9375 0.70312,-0.50781 1.44531,-0.9375 0.74219,-0.42968 1.71875,-0.66406 0.35156,-0.39062 0.85937,-0.66406 0.54688,-0.27344 1.05469,-0.50781 0.54688,-0.23438 1.01563,-0.50782 0.50781,-0.27343 0.82031,-0.74218 0.23437,0.3125 0.66406,0.23437 0.42969,-0.11719 0.78125,-0.23437 0.23438,-0.0391 0.39063,0.0781 0.15625,0.11719 0.27343,0.27344 0.15625,0.11719 0.23438,0.15625 0.11719,0.0391 0.23437,-0.23438 0.3125,0.0391 0.15625,0.27344 -0.11718,0.23438 -0.15625,0.3125 0.39063,-0.0781 0.625,0.15625 0.27344,0.19531 0.82032,0.27344 0.19531,0.19531 0.11718,0.3125 -0.0781,0.11719 -0.11718,0.39062 1.40625,0.42969 1.79687,1.36719 0.39063,0.89844 0.0781,1.91406 -0.3125,0.97657 -1.17188,1.83594 -0.82031,0.82031 -1.83594,1.09375 -1.21093,0.3125 -2.26562,0.625 -1.01563,0.3125 -1.99219,0.70313 -0.9375,0.39062 -1.79687,0.9375 -0.82032,0.50781 -1.44532,1.21093 -1.09375,0.3125 -1.99218,0.85938 -0.85938,0.54687 -1.640629,1.21094 -0.742188,0.66406 -1.445313,1.40625 -0.703125,0.70312 -1.40625,1.40625 0,0.66406 -0.234375,1.01562 -0.234375,0.35156 -0.507812,0.70313 0.07813,0.74218 0.3125,1.28906 0.273437,0.50781 0.546875,1.05469 3.125004,0.9375 6.601564,1.17187 3.51562,0.19531 6.95312,0.23438 0.35157,0.46875 0.78125,0.89843 0.46875,0.39063 0.82032,0.82032 0.39062,0.42968 0.58593,1.01562 0.23438,0.54688 0.11719,1.32813 -0.66406,0.66406 -1.44531,1.28906 -0.78125,0.58594 -1.5625,1.17187 -0.35156,0.0391 -0.85938,0 -0.46875,-0.0391 -1.01562,-0.0391 -0.50781,0 -1.05469,0.0781 -0.50781,0.0391 -0.97656,0.23437 -2.46094,-0.0781 -5.03906,-0.58594 -2.578129,-0.54687 -4.765629,-1.28906 -0.429688,-0.50781 -0.898438,-0.9375 -0.46875,-0.46875 -1.25,-0.66406 z"
         style="font-style:normal;font-variant:normal;font-weight:normal;font-stretch:normal;font-family:'Permanent Marker';-inkscape-font-specification:'Permanent Marker';fill:#333333;fill-opacity:1"
         id="path4235" />
      <path
         d="m 115.49297,347.86795 q 0.0391,-0.15625 0.15625,-0.11719 0.15625,0 0.27343,-0.0391 -0.3125,-0.3125 -0.39062,-0.82031 -0.0781,-0.54688 -0.39063,-0.89844 0.0781,-0.19531 0.11719,-0.39062 0.0781,-0.19532 0.35156,-0.15625 -0.11718,-0.85938 0.0391,-1.60157 0.15625,-0.74218 0.46875,-1.40625 0.35156,-0.66406 0.78125,-1.28906 0.46875,-0.66406 0.89843,-1.32812 0.35157,-0.0781 0.42969,0.0781 0.0781,0.11719 0.27344,-0.0781 0.625,-0.42969 0.85937,-0.9375 0.23438,-0.54688 0.23438,-1.17188 0.35156,-1.01562 0.78125,-1.99219 0.46875,-1.01562 1.05469,-1.875 0.58593,-0.85937 1.25,-1.48437 0.66406,-0.66406 1.44531,-1.01563 0.54687,-0.46875 1.36719,-0.85937 0.85937,-0.39063 1.79687,-0.58594 0.97656,-0.23437 1.99219,-0.23437 1.01562,-0.0391 1.875,0.19531 0.19531,0.0781 0.23437,-0.0781 0.0391,-0.19531 0.19532,-0.19531 1.95312,0.23438 3.47656,0.78125 1.5625,0.54688 2.65625,1.52344 0.74219,1.17187 1.40625,2.53906 0.66406,1.32813 1.01562,2.8125 0.39063,1.44531 0.35157,3.00781 -0.0391,1.5625 -0.66407,3.125 -1.36718,1.71875 -3.32031,2.77344 -1.95312,1.01563 -4.21875,1.71875 -2.22656,0.66406 -4.64844,1.09375 -2.38281,0.42969 -4.64843,0.9375 0.0391,1.05469 0,2.26563 -0.0391,1.17187 -0.27344,2.38281 -0.19531,1.17187 -0.625,2.30469 -0.39063,1.13281 -1.09375,2.10937 -0.78125,-0.0391 -1.64063,0.15625 -0.82031,0.19531 -1.48437,0.39063 -0.3125,-0.19532 -0.625,-0.39063 -0.27344,-0.15625 -0.70313,-0.19531 0.11719,-0.46875 -0.23437,-0.97656 -0.3125,-0.50782 -0.66406,-0.97657 -0.3125,-0.50781 -0.42969,-0.97656 -0.0781,-0.50781 0.46875,-0.89844 -0.3125,-0.27343 -0.3125,-0.85937 0.15625,0.15625 0.39062,0.15625 -0.0781,-0.70313 0.15625,-1.67969 0.27344,-0.97656 0.42969,-1.91406 0.19531,-0.97656 0.0781,-1.75781 -0.11719,-0.82032 -0.9375,-1.17188 z m 10.15625,-9.14062 q -0.15625,0.42968 -0.27344,0.78125 -0.0781,0.3125 -0.19531,0.58593 -0.11719,0.27344 -0.27344,0.54688 -0.11719,0.27344 -0.27344,0.625 0.0781,0.23437 0.3125,0.35156 0.23438,0.11719 0.3125,0.35156 0.54688,-0.27343 1.09375,-0.39062 0.54688,-0.15625 1.09375,-0.23438 0.54688,-0.0781 1.09375,-0.19531 0.54688,-0.11719 1.13281,-0.39062 0.58594,-0.27344 1.21094,-0.42969 0.66406,-0.19531 1.28906,-0.39063 0.625,-0.19531 1.21094,-0.42968 0.58594,-0.27344 1.01563,-0.70313 -0.54688,-0.50781 -1.64063,-0.89844 -1.09375,-0.39062 -2.38281,-0.46875 -1.25,-0.11718 -2.53906,0.15625 -1.25,0.27344 -2.1875,1.13282 z"
         style="font-style:normal;font-variant:normal;font-weight:normal;font-stretch:normal;font-family:'Permanent Marker';-inkscape-font-specification:'Permanent Marker';fill:#333333;fill-opacity:1"
         id="path4237" />
      <path
         d="m 159.28203,355.60233 q -0.23438,0.66406 -0.70313,1.36718 -0.42968,0.66407 -1.05468,1.21094 -0.58594,0.50781 -1.32813,0.85938 -0.74219,0.35156 -1.5625,0.39062 -0.50781,-0.11719 -0.70312,-0.27344 -0.15625,-0.11718 -0.35157,-0.23437 -0.11718,-0.0781 -0.23437,-0.11719 -0.0781,-0.0781 -0.15625,-0.11719 l -0.46875,-0.19531 0.15625,-0.50781 q 0.0781,-0.3125 -0.0391,-0.46875 -0.11719,-0.19531 -0.46875,-0.50781 -0.11719,-0.11719 -0.23438,-0.23438 -0.11719,-0.11719 -0.19531,-0.23437 l -0.66406,-0.74219 1.05468,-0.27344 q 0.97657,-0.27344 1.28907,-0.70312 0.35156,-0.42969 0.27343,-1.44532 -0.78125,-0.15625 -1.32812,-0.0391 -0.50781,0.11719 -1.05469,0.27344 -0.70312,0.19531 -1.44531,0.35156 -0.70313,0.11719 -1.5625,0.11719 -0.3125,0 -0.58594,0 -0.27344,-0.0391 -0.58594,-0.0781 l -0.39062,-0.0781 q -0.0781,-0.42969 -0.15625,-0.46875 -0.0781,-0.0781 -0.15625,-0.15625 -0.19531,-0.19531 -0.42969,-0.50781 -0.19531,-0.35157 -0.0781,-0.85938 -0.19532,-0.35156 -0.23438,-0.70312 -0.23437,0.46875 -0.35156,0.97656 l -0.15625,0.39062 -0.39063,0.0781 q -0.0781,0.0391 -0.11718,0.19531 -0.0391,0.11719 -0.0391,0.19531 l -0.19531,0.66407 q -0.0781,0.0781 -0.15625,0.15625 -0.0781,0.0391 -0.15625,0.11718 -0.0781,0.35157 -0.19531,0.70313 -0.11719,0.35156 -0.23438,0.66406 -0.19531,0.50781 -0.35156,1.01563 -0.11719,0.46875 -0.0781,0.9375 l -0.15625,0.42968 q -0.19532,0.23438 -0.42969,0.39063 -0.23438,0.11719 -0.46875,0.23437 -0.0781,0.0781 -0.23438,0.15625 -0.11718,0.0391 -0.19531,0.0781 l -0.11719,0.42969 -0.46875,0.0781 q -0.42968,0.0781 -0.625,0.11719 -0.15625,0.0391 -0.39062,0.0391 l -0.39063,-0.0391 q -0.42968,-0.35156 -0.66406,-0.54688 -0.23437,-0.23437 -0.54687,-0.42968 -0.35157,-0.46875 -0.39063,-0.70313 -0.0391,-0.23437 -0.0781,-0.42969 -0.0781,-0.23437 -0.0781,-0.39062 -0.0391,-0.15625 -0.11719,-0.23438 l -0.50781,-0.46875 0.42969,-0.35156 0.0391,-0.66406 q 0.78125,-1.99219 1.64063,-3.82813 0.89843,-1.83593 1.83593,-3.75 0.3125,-0.625 0.58594,-1.25 0.3125,-0.625 0.625,-1.25 -0.0391,-0.11718 -0.0391,-0.27343 0,-0.15625 0.0781,-0.35157 0.42969,-0.66406 0.70313,-1.17187 0.27344,-0.54688 0.54687,-1.09375 0.3125,-0.66406 0.625,-1.28906 0.35157,-0.625 0.85938,-1.28907 l 0.625,-0.27343 q 0.11719,-0.0391 0.27344,-0.0781 0.15625,-0.0781 0.35156,-0.0781 l 0.58594,0.0781 q 1.09375,-0.50781 1.91406,-1.40625 0.82031,-0.9375 1.67969,-2.22656 l 0.39062,-0.54688 0.50781,0.3125 q 0.19532,0.11719 0.54688,0.23438 0.35156,0.0781 0.74219,0.19531 0.70312,0.15625 1.32812,0.35156 0.625,0.19532 1.01563,0.58594 0.23437,0.625 0.27343,0.9375 0.0391,0.3125 0.11719,0.625 0.11719,0.66406 0.19531,1.32813 0.11719,0.66406 0.15625,1.48437 0.19532,0.66406 0.3125,1.32813 0.15625,0.625 0.27344,1.28906 0.19531,0.9375 0.39063,1.83594 0.19531,0.85937 0.50781,1.64062 0.3125,0 0.39062,0.0391 0.19532,-0.0781 0.39063,-0.11718 0.23437,-0.0391 0.50781,-0.0781 l 0.42969,-0.0391 0.15625,0.39062 q 0.0391,0.19532 0.39062,0.39063 0.50782,0.0391 0.74219,0.23437 0.23438,0.15625 0.42969,0.35157 0.15625,0.15625 0.3125,0.23437 l 0.58594,0.23438 -0.3125,0.58593 q -0.39063,0.70313 -1.13282,1.36719 -0.70312,0.625 -1.60156,1.05469 0.0391,0.23437 0.0391,0.46875 0.0391,0.19531 0.11719,0.42969 0.11719,0.66406 0.19531,1.36718 0.0781,0.70313 0,1.44532 l -0.0781,0.15625 z m -11.28906,-6.75782 q 1.17187,-0.0781 2.10937,-0.15625 0.97656,-0.11718 2.14844,-0.35156 -0.27344,-1.17187 -0.58594,-2.42187 -0.3125,-1.28907 -0.66406,-2.53907 l -0.23438,0.39063 q -0.78125,0.82031 -1.52343,1.83594 -0.70313,1.01562 -1.21094,1.91406 -0.23438,0.35156 -0.46875,0.70312 -0.23438,0.35157 -0.42969,0.70313 0.23438,-0.0391 0.42969,-0.0391 0.23437,0 0.42969,-0.0391 z"
         style="font-style:normal;font-variant:normal;font-weight:normal;font-stretch:normal;font-family:'Permanent Marker';-inkscape-font-specification:'Permanent Marker';fill:#333333;fill-opacity:1"
         id="path4239" />
      <path
         d="m 168.18828,354.82108 q -0.42969,1.5625 -0.78125,2.38281 -0.3125,0.78125 -0.97656,1.64062 -0.50782,-0.0781 -0.70313,0.11719 -0.19531,0.19531 -0.42969,0.35156 -0.35156,0.0781 -0.50781,0 -0.15625,-0.0781 -0.27344,-0.19531 -0.11718,-0.0781 -0.3125,-0.19531 -0.15625,-0.0781 -0.50781,-0.0781 -0.0781,-0.3125 -0.19531,-0.58593 -0.0781,-0.27344 -0.50781,-0.19532 0.0781,-0.3125 0.0391,-0.50781 -0.0391,-0.23437 -0.11719,-0.39062 -0.0391,-0.19532 -0.0781,-0.35157 -0.0391,-0.19531 0.0391,-0.46875 -0.19531,0 -0.3125,-0.27343 -0.11719,-0.27344 -0.27344,-0.54688 0.11719,-0.70312 0.23438,-1.32812 0.11718,-0.625 0.27343,-1.17188 0.19532,-0.54687 0.3125,-1.09375 0.11719,-0.54687 -0.11718,-1.13281 0.15625,0.11719 0.23437,-0.0391 0.0781,-0.19532 0.11719,-0.46875 0.0391,-0.3125 0.0391,-0.58594 0,-0.3125 -0.0391,-0.50781 0.39062,-1.01563 0.625,-2.07032 0.27344,-1.09375 0.46875,-2.14843 0.23437,-1.05469 0.46875,-2.07032 0.23437,-1.01562 0.625,-1.875 0.42969,-0.0781 0.9375,0.11719 0.54687,0.15625 0.66406,0.42969 1.01563,-0.78125 1.79688,-1.875 0.78125,-1.13281 1.60156,-2.1875 0.82031,-1.05469 1.79687,-1.875 1.01563,-0.82031 2.53907,-0.97656 0.78125,0.58593 1.71875,1.21093 0.97656,0.58594 1.60156,1.5625 0.3125,0.15625 0.50781,0.35157 0.23438,0.15625 0.54688,0.35156 l 0,0.46875 q 0.46875,0.42969 0.74218,1.01562 0.3125,0.54688 0.54688,1.21094 0.23437,0.625 0.46875,1.28906 0.23437,0.625 0.54687,1.21094 -0.0781,0.19531 -0.0781,0.35156 0,0.11719 0.0391,0.27344 0.0781,0.15625 0.11719,0.3125 0.0391,0.15625 0,0.42969 -0.11719,1.71875 -1.13281,2.77344 -0.97657,1.05468 -2.38282,1.75781 -1.40625,0.66406 -3.00781,1.13281 -1.60156,0.46875 -2.89062,1.01563 0,0.15625 0.11718,0.15625 0.15625,0 0.11719,0.19531 0.9375,0.58594 1.48438,0.9375 0.54687,0.35156 1.01562,0.58594 0.50781,0.23437 1.05469,0.42968 0.58594,0.15625 1.60156,0.39063 1.01563,0.23437 1.5625,0.39062 0.58594,0.11719 1.05469,0.23438 0.46875,0.0781 0.9375,0.15625 0.50781,0.0391 1.40625,0.11719 0.35156,0.35156 0.58594,0.85937 0.27343,0.46875 0.35156,0.97656 0.0781,0.46875 0.0391,0.9375 -0.0391,0.42969 -0.27344,0.70313 0.0391,0.11719 0.15625,0.11719 0.15625,-0.0391 0.3125,0 -0.23437,0.15625 -0.39062,0.39062 -0.15625,0.23438 -0.3125,0.46875 -0.15625,0.23438 -0.35156,0.39063 -0.19532,0.19531 -0.54688,0.23437 -1.21094,0.46875 -3.04687,0.0391 -1.83594,-0.39062 -4.64844,-1.48437 -1.40625,-0.54688 -2.30469,-0.9375 -0.85937,-0.42969 -1.52344,-0.82031 -0.625,-0.42969 -1.17187,-0.89844 -0.50781,-0.46875 -1.25,-1.13281 z m 5.58594,-13.39844 q -0.42969,0.625 -0.97657,1.13281 -0.50781,0.50781 -1.01562,1.05469 -0.46875,0.50781 -0.85938,1.17187 -0.39062,0.625 -0.54687,1.48438 1.36719,-0.15625 2.85156,-0.74219 1.48438,-0.625 2.8125,-1.17187 -0.15625,-1.21094 -0.85937,-1.95313 -0.66407,-0.74219 -1.40625,-0.97656 z"
         style="font-style:normal;font-variant:normal;font-weight:normal;font-stretch:normal;font-family:'Permanent Marker';-inkscape-font-specification:'Permanent Marker';fill:#333333;fill-opacity:1"
         id="path4241" />
      <path
         d="m 204.63359,340.09451 q -0.97656,0 -2.10937,0.15625 -1.13282,0.11719 -2.22657,0.27344 -0.78125,0.11719 -1.52343,0.19531 -0.70313,0.0781 -1.28907,0.11719 -0.27343,0.85938 -0.54687,1.52344 -0.27344,0.66406 -0.58594,1.28906 -0.3125,0.66406 -0.58594,1.36719 -0.23437,0.66406 -0.46875,1.44531 -0.39062,0.625 -0.66406,1.17188 -0.23437,0.50781 -0.39062,1.17187 -0.46875,0.58594 -0.70313,1.25 -0.23437,0.625 -0.35156,1.09375 l -0.15625,0.46875 q -0.23438,0.23438 -0.27344,0.39063 -0.0391,0.11718 -0.19531,0.23437 -0.0391,0.42969 -0.27344,0.85938 -0.0781,0.19531 -0.11719,0.39062 -0.0391,0.15625 -0.0391,0.23438 0,0.39062 -0.19531,0.50781 0.0391,0.19531 0,0.42969 -0.0391,0.19531 -0.0781,0.39062 -0.11718,0.46875 -0.0781,0.74219 0.11719,0.15625 0.19531,0.27344 0.11719,0.11718 0.15625,0.3125 0.23438,0.15625 0.35156,0.19531 0.15625,0.11719 0.46875,0.27344 l 0.35157,0.39062 q 0.19531,1.13281 -0.35157,1.79688 -0.58593,0.74218 -1.99218,0.74218 l -0.46875,0 q -0.19532,-0.19531 -0.23438,-0.3125 -0.3125,-0.11718 -0.50781,-0.19531 -0.19531,-0.0781 -0.35156,-0.3125 -0.50782,-0.23437 -0.82032,-0.39062 l -0.35156,-0.19532 q 0,-0.42968 0,-0.46875 -0.27344,-0.35156 -0.42969,-0.78125 -0.11718,-0.42968 -0.19531,-0.85937 -0.0781,-0.35156 -0.19531,-0.66406 -0.0781,-0.3125 -0.23438,-0.54688 -0.0781,-2.26562 0.42969,-3.82812 0.50781,-1.5625 1.05469,-3.00782 0.3125,-0.78125 0.625,-1.5625 0.3125,-0.82031 0.54687,-1.67968 l 0.35157,-0.39063 q 0.27343,-0.625 0.42968,-1.01562 0.19532,-0.42969 0.39063,-0.85938 0.11719,-0.27344 0.19531,-0.50781 0.11719,-0.27344 0.19531,-0.46875 -0.23437,0 -0.42968,0.0391 -0.19532,0 -0.39063,0.0391 -0.23437,0.0391 -0.42969,0.0781 -0.19531,0 -0.39062,0 -0.27344,0 -0.39063,-0.0391 -0.42968,0.19531 -0.9375,0.19531 l -0.39062,0 q -0.11719,0 -0.23438,0 -0.0781,-0.0391 -0.15625,-0.0391 -0.39062,0 -0.625,0.11718 -0.46875,0 -0.89843,0 l -0.39063,0 q -0.0781,0 -0.19531,0.0391 -0.11719,0 -0.19531,0 -0.27344,0 -0.58594,-0.0391 -0.3125,-0.0781 -0.66406,-0.27343 -0.46875,-0.625 -0.625,-0.66407 l -0.35157,-0.46875 q -0.0391,-0.23437 -0.11718,-0.42968 -0.0781,-0.23438 -0.15625,-0.50782 -0.15625,-0.39062 -0.3125,-0.82031 -0.11719,-0.46875 -0.11719,-1.09375 0.0391,-0.3125 0.15625,-0.46875 0.11719,-0.15625 0.19531,-0.27344 l 0.11719,-0.58593 0.50781,0.0391 1.09375,0 q 1.25,0 2.53906,-0.0781 1.28907,-0.11718 2.65625,-0.23437 0.78125,-0.0781 1.5625,-0.15625 0.82032,-0.0781 1.67969,-0.15625 0.15625,-0.35156 0.3125,-0.66406 l 0.39063,-0.19532 q 0.70312,-0.0391 0.97656,0.19532 0.3125,0.19531 0.50781,0.39062 0.85938,-0.0781 1.71875,-0.15625 0.89844,-0.11719 1.79688,-0.27344 1.32812,-0.19531 2.65625,-0.35156 1.36718,-0.15625 2.61718,-0.15625 0.54688,0 1.05469,0.0391 0.50781,0.0391 0.9375,0.11719 l 0.39063,0.27344 q 0.11718,0.23437 0.3125,0.42969 0.23437,0.19531 0.46875,0.39062 0.46875,0.42969 0.9375,1.01563 0.46875,0.58593 0.35156,1.71875 -0.3125,0.46875 -0.46875,0.54687 l -0.35156,0.46875 -0.39063,-0.0391 q -0.23437,0 -0.42969,0.0781 -0.19531,0.0391 -0.39062,0.11719 -0.15625,0.0781 -0.3125,0.15625 -0.15625,0.0391 -0.35156,0.0781 -0.35157,0 -0.58594,0 -0.19531,-0.0391 -0.42969,-0.0391 z"
         style="font-style:normal;font-variant:normal;font-weight:normal;font-stretch:normal;font-family:'Permanent Marker';-inkscape-font-specification:'Permanent Marker';fill:#333333;fill-opacity:1"
         id="path4243" />
      <path
         d="m 207.36797,354.23514 q 0.0781,0.3125 0.11718,0.58594 0.0391,0.27343 0.11719,0.58593 -0.15625,0.39063 -0.27344,0.78125 -0.11718,0.35157 -0.23437,0.70313 -0.11719,0.27344 -0.15625,0.35156 -0.0391,0.0781 -0.0391,0.11719 0,0.0391 0,0.11719 0.0391,0.0391 0.0391,0.3125 l -0.15625,0.46875 q -0.19531,0.27343 -0.46875,0.42968 -0.27344,0.15625 -0.54688,0.27344 -0.0781,0.0781 -0.23437,0.11719 -0.15625,0.0781 -0.23438,0.15625 l -0.11718,0.46875 -0.50782,0.0781 q -0.66406,0.15625 -1.13281,0.15625 l -0.46875,0 q -0.46875,-0.42968 -0.74219,-0.66406 -0.27343,-0.23437 -0.58593,-0.42969 -0.39063,-0.54687 -0.42969,-0.78125 -0.0391,-0.27343 -0.11719,-0.50781 -0.0781,-0.50781 -0.19531,-0.66406 l -0.54688,-0.54688 0.46875,-0.35156 -0.42968,-0.74219 q 0.46875,-0.35156 0.70312,-0.50781 0.23438,-0.15625 0.39063,-0.3125 0.15625,-0.19531 0.35156,-0.46875 0.19531,-0.27344 0.625,-0.89844 l 0.35156,-0.50781 0.50781,0.27344 q 0.15625,0.11719 0.66407,0.23437 0.54687,0.0781 0.9375,0.15625 0.66406,0.19532 1.25,0.3125 0.58593,0.0781 0.9375,0.39063 l 0.15625,0.3125 z"
         style="font-style:normal;font-variant:normal;font-weight:normal;font-stretch:normal;font-family:'Permanent Marker';-inkscape-font-specification:'Permanent Marker';fill:#333333;fill-opacity:1"
         id="path4245" />
      <path
         d="m 211.46953,359.35233 q -0.54688,-0.35157 -0.85938,-0.89844 -0.35156,-0.54688 -0.54687,-1.17188 -0.23438,-0.625 -0.35156,-1.28906 -0.15625,-0.70312 -0.3125,-1.32812 0,-0.54688 0.23437,-0.78125 0.23438,-0.27344 0.50781,-0.50782 0.9375,-0.0391 1.67969,-0.15625 0.74219,-0.11718 1.44531,-0.23437 0.70313,-0.11719 1.40625,-0.19531 0.70313,-0.11719 1.52344,-0.11719 0.58594,-1.21094 1.09375,-2.30469 0.50781,-1.13281 0.97656,-2.14844 0.23438,-0.97656 0.58594,-1.79687 0.39063,-0.85938 0.74219,-1.60156 0.35156,-0.78125 0.625,-1.52344 0.27344,-0.78125 0.35156,-1.64063 0.46875,-1.36718 0.82031,-2.5 0.39063,-1.17187 0.58594,-2.77343 -1.48437,0.23437 -2.38281,0.46875 -0.89844,0.19531 -1.28906,0.39062 -0.78125,-0.0391 -1.25,-0.3125 -0.42969,-0.27344 -0.70313,-0.66406 -0.27344,-0.39063 -0.46875,-0.89844 -0.19531,-0.50781 -0.46875,-1.05469 0.15625,-0.35156 0.0781,-1.01562 -0.0781,-0.70313 -0.46875,-1.01563 0.3125,-0.0781 0.46875,-0.50781 0.15625,-0.46875 0.0391,-0.70312 0.66406,-0.19532 1.40625,-0.23438 0.74219,-0.0781 1.44531,-0.11719 0.74219,-0.0781 1.40625,-0.15625 0.66406,-0.11718 1.13281,-0.42968 2.03125,-0.0781 4.21875,-0.15625 2.22657,-0.0781 4.10157,-0.19532 0.70312,0.23438 1.60156,0.23438 0.9375,0 1.83594,0.11719 0.9375,0.11718 1.64062,0.50781 0.74219,0.39062 1.01563,1.36719 0.58593,0.0781 0.85937,0.3125 0.3125,0.23437 0.39063,0.58593 0.0781,0.3125 0.0391,0.74219 0,0.39063 0,0.78125 -0.625,0.46875 -1.60156,0.78125 -0.9375,0.27344 -2.07032,0.46875 -1.13281,0.15625 -2.38281,0.23438 -1.21094,0.0391 -2.38281,0.0781 -0.19531,1.28906 -0.70313,3.04688 -0.46875,1.71875 -0.97656,3.39843 -0.50781,1.64063 -0.89844,2.96875 -0.35156,1.28907 -0.3125,1.67969 -0.39062,0.89844 -0.66406,1.52344 -0.23437,0.625 -0.46875,1.17187 -0.19531,0.54688 -0.42969,1.09375 -0.19531,0.50782 -0.50781,1.17188 l 2.65625,0 q 0.0781,0.42969 0.35156,0.58594 0.27344,0.15625 0.58594,0.27343 0.3125,0.11719 0.54688,0.3125 0.27343,0.15625 0.27343,0.54688 0.74219,0.19531 0.9375,0.58594 0.19532,0.39062 0.0781,0.85937 -0.0781,0.42969 -0.39063,0.89844 -0.27343,0.46875 -0.54687,0.82031 -0.35156,-0.0781 -0.66406,0.19531 -0.3125,0.23438 -0.58594,0.54688 -1.13281,-0.15625 -2.22656,-0.0391 -1.09375,0.11718 -2.03125,0.19531 -0.19532,0.0391 -0.15625,0.23437 0.0391,0.15625 -0.0781,0.23438 -1.21094,-0.39063 -2.5,-0.3125 -1.25,0.0781 -2.57812,0.39062 -1.28907,0.27344 -2.65625,0.58594 -1.36719,0.35156 -2.77344,0.39063 z"
         style="font-style:normal;font-variant:normal;font-weight:normal;font-stretch:normal;font-family:'Permanent Marker';-inkscape-font-specification:'Permanent Marker';fill:#333333;fill-opacity:1"
         id="path4247" />
      <path
         d="m 239.43828,351.7742 q -0.35156,0.0781 -0.50781,0.42969 -0.15625,0.3125 -0.3125,0.66406 -0.11719,0.35156 -0.27344,0.66406 -0.11719,0.27344 -0.39063,0.27344 -0.0391,0.3125 -0.23437,0.54688 -0.15625,0.23437 -0.3125,0.50781 -0.15625,0.23437 -0.23438,0.54687 -0.0781,0.27344 0.0781,0.66407 -0.3125,0.23437 -0.39063,0.66406 -0.0781,0.42969 -0.19531,0.82031 -0.0781,0.39063 -0.3125,0.66406 -0.23437,0.27344 -0.85937,0.23438 -0.11719,0.15625 -0.0391,0.19531 0.0781,0.0391 0.11719,0.27344 -0.42969,-0.0781 -0.66406,0.0391 -0.19531,0.15625 -0.50781,0.19531 -0.74219,-0.23437 -1.25,-0.82031 -0.46875,-0.58594 -0.85938,-1.28906 -0.35156,-0.74219 -0.66406,-1.48438 -0.27344,-0.74218 -0.54688,-1.28906 0.11719,-0.42969 0.0391,-0.82031 -0.0781,-0.42969 -0.27344,-0.70313 1.91406,-4.0625 4.17969,-8.67187 2.26562,-4.60938 4.29687,-9.10156 0.89844,0.35156 1.75781,0.82031 0.89844,0.42969 1.60157,1.01562 0.74218,0.58594 1.25,1.36719 0.50781,0.74219 0.66406,1.67969 -0.0781,0.23437 -0.19531,0.19531 -0.0781,-0.0781 -0.15625,0.0391 0.15625,0.19532 0.15625,0.27344 0.0391,0.0781 0,0.15625 0,0.0781 0,0.23438 0,0.11718 0.11718,0.35156 -0.15625,-0.0391 -0.23437,0.0391 -0.0391,0.0781 -0.23438,0 0.15625,0.42969 0.0781,0.70313 -0.0391,0.27343 -0.15625,0.50781 -0.11719,0.19531 -0.19531,0.46875 -0.0781,0.23437 0.0391,0.625 -0.11719,0 -0.19531,0.0781 -0.0391,0.0391 -0.0781,0.11719 -0.0391,0.0391 -0.11719,0.11719 -0.0391,0.0391 -0.15625,0 0.11719,0.85937 0.0781,1.71875 -0.0391,0.85937 -0.0781,1.75781 0,0.85938 0.0391,1.83594 0.0391,0.9375 0.27343,1.95312 1.40625,-0.82031 2.22657,-2.10937 0.85937,-1.28906 1.36718,-2.89063 0.54688,-1.60156 0.82032,-3.4375 0.27343,-1.83593 0.58593,-3.75 0.35157,-0.35156 0.54688,-0.85937 0.19531,-0.50781 0.35156,-1.05469 0.15625,-0.58594 0.3125,-1.13281 0.15625,-0.58594 0.39063,-1.05469 0.58593,0.0781 0.97656,0.39063 0.42969,0.27343 0.78125,0.625 0.35156,0.3125 0.74219,0.625 0.39062,0.27343 0.97656,0.35156 0.46875,0.66406 0.85937,1.28906 0.39063,0.625 0.50782,1.32813 -0.19532,0.3125 -0.3125,0.70312 -0.0781,0.39063 -0.19532,0.78125 -0.11718,0.39063 -0.3125,0.74219 -0.19531,0.3125 -0.54687,0.54687 -0.11719,1.01563 -0.3125,1.875 -0.15625,0.82032 -0.35156,1.64063 -0.15625,0.82031 -0.27344,1.71875 -0.11719,0.85937 -0.0781,1.91406 -0.3125,0.89844 -0.66406,1.91406 -0.35156,1.01563 -0.54687,1.83594 -0.625,0.50781 -0.97657,1.21094 -0.35156,0.70312 -0.74218,1.40625 -0.15625,0.15625 -0.19532,0.0781 -0.0391,-0.0781 -0.27343,-0.11718 0.0391,0.15625 0,0.23437 -0.0391,0.0781 -0.11719,0.15625 -0.0391,0.0391 -0.0781,0.15625 0,0.11719 0.0781,0.3125 -0.54688,0.23438 -0.97656,0.66406 -0.42969,0.42969 -0.9375,0.78125 -0.46875,0.35157 -1.17188,0.46875 -0.66406,0.11719 -1.75781,-0.27343 -1.60156,-1.17188 -2.85156,-2.69532 -1.21094,-1.52343 -1.99219,-3.63281 z"
         style="font-style:normal;font-variant:normal;font-weight:normal;font-stretch:normal;font-family:'Permanent Marker';-inkscape-font-specification:'Permanent Marker';fill:#333333;fill-opacity:1"
         id="path4249" />
      <path
         d="m 259.47734,357.55545 q -0.23437,1.32813 -1.32812,1.83594 -0.50782,0.0391 -0.78125,-0.0391 -0.23438,-0.0781 -0.50782,-0.19532 -0.35156,-0.15625 -0.625,-0.19531 l -0.42968,-0.3125 q -0.0781,-0.19531 -0.19532,-0.39062 -0.11718,-0.19532 -0.27343,-0.39063 -0.3125,-0.39062 -0.625,-0.97656 -0.23438,-1.13281 -0.0781,-1.875 0.15625,-0.78125 0.39063,-1.52344 0.0781,-0.23437 0.15625,-0.46875 0.0781,-0.27344 0.15625,-0.50781 -1.01563,-0.54688 -1.52344,-1.5625 -0.50781,-1.01563 -0.58594,-1.95313 0.11719,-0.74218 0.42969,-1.17187 0.3125,-0.46875 0.70312,-0.74219 0.42969,-0.27344 0.85938,-0.42969 0.46875,-0.15625 0.89844,-0.27343 l 0.50781,0.19531 q 0.35156,0.35156 0.70312,0.54687 0.27344,-0.11718 0.35157,-0.35156 0.11718,-0.27344 0.19531,-0.58594 0.11719,-0.35156 0.23437,-0.70312 0.15625,-0.35156 0.35157,-0.70313 -0.0391,-0.50781 0.15625,-0.9375 -0.27344,-0.19531 -0.58594,-0.23437 -0.0781,0 -0.39063,-0.0781 -0.46875,-0.35156 -0.66406,-0.58593 -0.15625,-0.27344 -0.3125,-0.50782 -0.23437,-0.50781 -0.58594,-0.82031 l -0.39062,-0.27344 0.19531,-0.39062 q 0.0781,-0.0781 0.0781,-0.19531 0,-0.11719 -0.15625,-0.35157 -0.0781,-0.42968 0,-0.58593 l 0.0781,-0.39063 q 0.3125,-0.42969 0.3125,-0.46875 l 0.35156,-0.35156 q 0.78125,-0.19531 1.52344,-0.42969 0.78125,-0.27344 1.5625,-0.54687 0.74219,-0.23438 1.48438,-0.46875 0.78125,-0.27344 1.5625,-0.46875 0.27343,-0.19532 0.58593,-0.23438 0.3125,-0.0781 0.58594,-0.11719 0.23438,-0.0391 0.42969,-0.0391 0.19531,-0.0391 0.27344,-0.15625 0.46875,-0.15625 1.09375,-0.35156 0.97656,-0.27344 2.57812,-0.58594 1.60156,-0.35156 3.59375,-0.54687 l 0.66406,-0.0391 q 0.19532,0.0391 0.39063,0.0391 0.19531,-0.0391 0.39062,-0.0391 1.75782,0 2.22657,1.05469 0.35156,0.19531 0.625,0.42969 0.27343,0.23437 0.50781,0.46875 0.11719,0.15625 0.23437,0.27344 0.15625,0.11718 0.23438,0.15625 0.66406,1.01562 0.42969,1.79687 -0.35157,0.50781 -0.89844,0.58594 l -0.42969,0.23437 q -0.42969,-0.0391 -0.66406,-0.0391 -0.19531,0 -0.42969,0 -0.97656,0 -2.26562,0.11719 -1.28907,0.11719 -2.65625,0.35156 -1.32813,0.19531 -2.57813,0.50781 -1.25,0.3125 -2.1875,0.66407 l -0.70312,0.35156 q -0.27344,0.42969 -0.3125,0.70312 -0.0391,0.23438 -0.0781,0.46875 -0.0391,0.15625 -0.0781,0.3125 0,0.15625 -0.0391,0.35157 -0.66406,0.82031 -0.66406,1.95312 -0.27344,0.46875 -0.35156,0.70313 -0.0781,0.19531 0,0.50781 0.74219,0.3125 1.40625,0.23437 0.66406,-0.0781 1.32812,-0.19531 0.89844,-0.15625 1.83594,-0.27344 0.97656,-0.11718 1.99219,-0.11718 l 1.25,0 -0.3125,0.3125 0.19531,0.54687 q 0.23438,0.11719 0.3125,0.15625 0.11719,0.0391 0.23438,0.11719 l 0.19531,0.35156 q 0.15625,0.0781 0.27344,0.27344 0.15625,0.19531 0.19531,0.58594 l -1.60156,2.26562 -0.54688,0.15625 q -0.66406,-0.0391 -1.17187,0.15625 -0.27344,0.0781 -0.54688,0.15625 -0.27344,0.0391 -0.58594,0.0391 -0.78125,0.15625 -1.32812,0.23438 -0.50781,0.0781 -1.05469,0.15625 -0.70312,0.0781 -1.36719,0.23437 -0.66406,0.11719 -1.25,0.35157 -0.39062,0 -0.54687,0 -0.3125,0 -0.66406,0.11718 -0.3125,0.0781 -0.58594,0.15625 -0.19531,0.15625 -0.27344,0.35157 -0.0781,0.15625 -0.15625,0.35156 -0.15625,0.54687 -0.42969,0.89844 l 0,0.58593 q -0.3125,0.39063 -0.39062,0.625 -0.0391,0.19532 -0.11719,0.39063 -0.0781,0.11719 -0.11719,0.23437 -0.0391,0.0781 -0.0391,0.19532 0.3125,0.58593 0.15625,1.32812 z"
         style="font-style:normal;font-variant:normal;font-weight:normal;font-stretch:normal;font-family:'Permanent Marker';-inkscape-font-specification:'Permanent Marker';fill:#333333;fill-opacity:1"
         id="path4251" />
      <path
         d="m 294.98515,347.16483 q -0.0391,0.46875 0.0781,0.89843 0.11719,0.42969 0.27344,0.85938 0.19531,0.39062 0.35156,0.82031 0.15625,0.42969 0.23437,0.85938 0.0781,0.54687 0,1.21093 -0.0781,0.625 -0.27343,1.25 -0.19532,0.58594 -0.50782,1.09375 -0.3125,0.46875 -0.74218,0.70313 -0.54688,0.70312 -1.32813,1.09375 -0.78125,0.39062 -1.44531,0.9375 -0.42969,0.27344 -0.97656,0.39062 -0.50782,0.11719 -1.05469,0.23438 -0.42969,0.23437 -1.01563,0.50781 -0.58593,0.23438 -1.21093,0.46875 -0.625,0.19531 -1.25,0.3125 -0.625,0.0781 -1.09375,0.0391 -1.17188,0.42969 -2.30469,0.54688 -1.09375,0.15625 -2.57813,-0.15625 -1.40625,0.19531 -2.61718,-0.11719 -1.17188,-0.3125 -2.10938,-0.97656 -0.89844,-0.70313 -1.60156,-1.64063 -0.66406,-0.97656 -1.09375,-2.03125 -0.3125,-2.22656 0.15625,-4.02343 0.46875,-1.83594 1.32812,-3.35938 0.89844,-1.5625 2.03125,-2.85156 1.13282,-1.32813 2.1875,-2.57813 0.23438,0.0781 0.35157,0 0.15625,-0.11718 0.27343,-0.27343 0.11719,-0.19532 0.23438,-0.35157 0.15625,-0.15625 0.35156,-0.19531 0.27344,-0.58594 0.78125,-0.85937 0.54688,-0.3125 0.85938,-0.85938 0.35156,-0.0781 0.58593,-0.23437 0.23438,-0.15625 0.42969,-0.35157 0.23438,-0.19531 0.46875,-0.35156 0.23438,-0.19531 0.54688,-0.27344 l 0,-0.42968 q 0.70312,-0.3125 1.01562,-0.70313 0.35156,-0.42969 0.82031,-1.01562 0.35157,-0.0391 0.54688,-0.0391 0.23437,0 0.66406,-0.0781 0.3125,-0.54688 0.54688,-0.82031 0.27343,-0.27344 0.78125,-0.58594 0.46875,0.23437 1.01562,0.3125 0.58594,0.0781 1.01563,0.50781 0.0391,0.39063 0.23437,0.625 0.19531,0.19531 0.42969,0.39063 0.23437,0.15625 0.42969,0.35156 0.23437,0.19531 0.3125,0.54687 0.15625,0.0391 0.19531,-0.0391 0.0781,-0.0781 0.23437,-0.0391 0.11719,0.54687 0.27344,0.74219 0.15625,0.15625 0.3125,0.66406 -0.19531,0.39062 -0.3125,0.82031 -0.0781,0.39063 -0.46875,0.58594 -0.0391,0.27344 0.15625,0.3125 0.19531,0 0.23438,0.19531 0.0391,0.35156 -0.11719,0.50781 0.9375,1.52344 1.67969,3.24219 0.74218,1.67969 1.67968,3.20313 z m -4.88281,3.71093 q 0.15625,-0.42968 0.39063,-0.70312 0.27343,-0.27344 0.3125,-0.82031 -0.19532,-0.3125 -0.23438,-0.46875 -0.0391,-0.19532 -0.0391,-0.58594 -0.85938,-1.21094 -1.48438,-2.57813 -0.625,-1.40625 -1.40625,-2.61718 -0.0781,0.15625 -0.27343,0.3125 -0.19532,0.15625 -0.42969,-0.0781 -0.0781,0.3125 -0.27344,0.46875 -0.19531,0.11719 -0.42969,0.11719 -0.23437,-0.0391 -0.50781,-0.11719 -0.23437,-0.11719 -0.42969,-0.27344 -1.13281,0.89844 -2.26562,1.75782 -1.13281,0.85937 -2.03125,1.99218 -0.15625,0.0781 -0.19531,0.0781 -0.0391,-0.0391 -0.23438,0.0391 -0.3125,0.74219 -0.78125,1.36719 -0.42969,0.58594 -0.85937,1.21094 -0.42969,0.625 -0.74219,1.32812 -0.3125,0.70313 -0.35156,1.64063 0.66406,0.54687 1.5625,0.66406 0.89843,0.11719 1.83593,0.0391 0.97657,-0.0781 1.875,-0.23437 0.9375,-0.19532 1.71875,-0.19532 1.64063,-0.39062 2.8125,-1.01562 1.17188,-0.66406 2.46094,-1.32813 z"
         style="font-style:normal;font-variant:normal;font-weight:normal;font-stretch:normal;font-family:'Permanent Marker';-inkscape-font-specification:'Permanent Marker';fill:#333333;fill-opacity:1"
         id="path4253" />
    </g>
  </g>
</svg>
